<svg width="201" height="201" viewBox="0 0 201 201" fill="none" xmlns="http://www.w3.org/2000/svg">
<path d="M166.4 1H34.08C15.8104 1 1 15.8104 1 34.08V166.4C1 184.67 15.8104 199.48 34.08 199.48H166.4C184.67 199.48 199.48 184.67 199.48 166.4V34.08C199.48 15.8104 184.67 1 166.4 1Z" fill="#1E1A79"/>
<path fill-rule="evenodd" clip-rule="evenodd" d="M99.8599 16C62.3899 16 32 53.58 32 99.94C32 146.3 62.3899 183.88 99.8599 183.88C137.33 183.88 167.73 146.3 167.73 99.94C167.73 53.58 137.34 16 99.8599 16ZM149.42 101.44C149.42 102.44 149.42 103.36 149.37 104.32L116.64 90.53L124.54 41.05C139.47 53.69 149.42 76.03 149.42 101.44ZM96.3201 30.1C106.32 30.1 115.67 33.83 123.66 40.3L94.6599 79.69L54.8101 57.02C64.5501 40.63 79.5401 30.1 96.3201 30.1ZM54.22 58.04L78.1199 99.89L48.5 132.41C44.9636 122.459 43.1772 111.971 43.22 101.41C43.22 85.12 47.33 70.08 54.22 58.04ZM96.3201 172.78C76.2301 172.78 58.6999 157.7 49.6899 135.52L89.8599 123.21L110.44 169.96L113.67 117.42L148.93 111.04C145.42 145.85 123.18 172.78 96.3201 172.78Z" fill="#82DFAF"/>
</svg>
