<?xml version="1.0" standalone="no"?>
<!DOCTYPE svg PUBLIC "-//W3C//DTD SVG 20010904//EN"
 "http://www.w3.org/TR/2001/REC-SVG-20010904/DTD/svg10.dtd">
<svg version="1.0" xmlns="http://www.w3.org/2000/svg"
 width="200.000000pt" height="199.000000pt" viewBox="0 0 200.000000 199.000000"
 preserveAspectRatio="xMidYMid meet">

<g transform="translate(0.000000,199.000000) scale(0.100000,-0.100000)"
fill="#000000" stroke="none">
<path d="M915 1849 c-27 -6 -86 -27 -130 -48 -468 -220 -591 -956 -232 -1390
91 -109 221 -192 347 -222 77 -18 203 -15 275 5 259 75 451 308 517 626 26
126 21 325 -11 450 -72 275 -256 490 -481 561 -75 24 -212 33 -285 18z m221
-189 c87 -43 178 -134 228 -229 46 -89 84 -199 93 -269 l6 -53 -144 3 -144 3
-64 173 c-35 94 -67 172 -71 172 -4 0 -36 -79 -71 -175 l-63 -175 -213 0 -213
0 0 23 c0 89 78 284 153 382 98 129 211 187 354 182 68 -3 92 -9 149 -37z
m-482 -666 c91 -59 166 -109 166 -113 -1 -3 -29 -82 -64 -176 -35 -93 -62
-172 -60 -174 2 -2 78 44 169 103 91 58 170 106 176 106 5 0 77 -43 160 -96
l149 -96 -18 -30 c-26 -46 -113 -131 -163 -160 -265 -155 -570 30 -669 407
-24 91 -40 335 -23 335 6 0 86 -48 177 -106z m813 -66 c-6 -96 -43 -241 -76
-306 l-19 -37 -12 30 c-55 141 -100 269 -95 273 7 8 199 131 204 131 2 1 1
-41 -2 -91z"/>
</g>
</svg>
